<?xml version="1.0" encoding="UTF-8"?>
<svg width="2880px" height="1080px" viewBox="0 0 2880 1080" version="1.1" xmlns="http://www.w3.org/2000/svg" xmlns:xlink="http://www.w3.org/1999/xlink">
    <!-- Generator: Sketch 63.1 (92452) - https://sketch.com -->
    <title>Custom Preset@1.5x</title>
    <desc>Created with Sketch.</desc>
    <g id="Custom-Preset" stroke="none" stroke-width="1" fill="none" fill-rule="evenodd">
        <rect fill="#29374D" x="0" y="0" width="2880" height="1080"></rect>
        <g id="RaspberryPI" transform="translate(325.000000, 371.000000)">
            <rect id="Rectangle" stroke="#979797" stroke-width="2" x="0" y="0" width="512" height="331" rx="14"></rect>
            <rect id="Rectangle" stroke="#FFFFFF" stroke-width="3" x="412" y="212" width="122" height="92"></rect>
            <rect id="Rectangle" stroke="#979797" stroke-width="5" x="162" y="96" width="94" height="94"></rect>
            <rect id="Rectangle" stroke="#979797" x="433" y="115" width="101" height="77"></rect>
            <rect id="Rectangle" stroke="#979797" x="433" y="24" width="101" height="77"></rect>
            <rect id="Rectangle" stroke="#979797" x="376" y="130" width="47" height="47"></rect>
            <polyline id="Path" stroke="#979797" points="379.649115 177 379.649115 189.189608 393.063203 206.149527 393.063203 215.93643 393.063203 275.438675 410.466572 275.438675"></polyline>
            <polyline id="Path" stroke="#979797" points="382 177 382 189.189608 395.414088 206.149527 395.414088 215.93643 395.414088 259.085206 410.466572 259.085206"></polyline>
            <polyline id="Path" stroke="#979797" points="384 177 384 189.189608 397.414088 206.149527 397.414088 215.93643 397.414088 244.821603"></polyline>
            <polyline id="Path-2" stroke="#979797" points="393.063203 178.248471 393.063203 195.47799 403.425073 208.606574 403.425073 220.244734 410.466572 220.244734"></polyline>
            <polyline id="Path-3" stroke="#979797" points="169.261232 192 169.261232 210.910802 209 234.550856 209 266.740597"></polyline>
            <polyline id="Path-3" stroke="#979797" points="172 192 172 210.910802 211.738768 234.550856 211.738768 266.740597"></polyline>
            <polyline id="Path-3" stroke="#979797" points="175 192 175 210.910802 214.738768 234.550856 214.738768 266.740597"></polyline>
            <polyline id="Path-4" stroke="#979797" points="180.082948 192 180.082948 210.910802 219.201294 233.709044 219.201294 296.16521 412 296.16521"></polyline>
            <polyline id="Path-5" stroke="#979797" points="183.454356 192 183.454356 208.535309 223.680927 232.677594 223.680927 290.4455 412 290.4455"></polyline>
            <polyline id="Path-6" stroke="#979797" points="197.756135 192 197.756135 210.910802 237.295072 229.370299 237.295072 283.071797 410.466572 283.071797"></polyline>
            <rect id="Rectangle" stroke="#979797" x="35" y="7" width="326" height="34" rx="4"></rect>
            <rect id="Rectangle" stroke="#979797" x="10" y="81" width="25" height="145" rx="8"></rect>
            <rect id="Rectangle" stroke="#979797" x="376" y="53" width="36" height="43" rx="4"></rect>
            <rect id="Rectangle" stroke="#979797" x="176" y="112" width="66" height="62" rx="4"></rect>
            <rect id="Rectangle" stroke="#979797" x="35" y="311" width="42" height="27"></rect>
        </g>
        <g id="VM" transform="translate(1895.000000, 294.000000)" stroke="#979797">
            <rect id="Rectangle" stroke-width="2" x="65" y="65.6084358" width="361" height="361" rx="29"></rect>
            <g id="tracegroup" transform="translate(0.000000, 114.608436)">
                <g id="trace">
                    <g>
                        <line x1="13.5" y1="6.5" x2="64.5" y2="6.5" id="Line" stroke-linecap="square"></line>
                        <circle id="Oval" cx="7" cy="7" r="7"></circle>
                    </g>
                    <g transform="translate(0.000000, 41.000000)">
                        <line x1="13.5" y1="6.5" x2="64.5" y2="6.5" id="Line" stroke-linecap="square"></line>
                        <circle id="Oval" cx="7" cy="7" r="7"></circle>
                    </g>
                    <g transform="translate(0.000000, 82.000000)">
                        <line x1="13.5" y1="6.5" x2="106.5" y2="6.5" id="Line" stroke-linecap="square"></line>
                        <circle id="Oval" fill="#D8D8D8" cx="114" cy="7" r="7"></circle>
                        <circle id="Oval" cx="7" cy="7" r="7"></circle>
                    </g>
                    <g transform="translate(0.000000, 123.000000)">
                        <line x1="13.5" y1="6.5" x2="106.5" y2="6.5" id="Line" stroke-linecap="square"></line>
                        <circle id="Oval" fill="#D8D8D8" cx="114" cy="7" r="7"></circle>
                        <circle id="Oval" cx="7" cy="7" r="7"></circle>
                    </g>
                    <g transform="translate(0.000000, 164.000000)">
                        <line x1="13.5" y1="6.5" x2="106.5" y2="6.5" id="Line" stroke-linecap="square"></line>
                        <circle id="Oval" fill="#D8D8D8" cx="114" cy="7" r="7"></circle>
                        <circle id="Oval" cx="7" cy="7" r="7"></circle>
                    </g>
                    <g transform="translate(0.000000, 205.000000)">
                        <line x1="13.5" y1="6.5" x2="64.5" y2="6.5" id="Line" stroke-linecap="square"></line>
                        <circle id="Oval" cx="7" cy="7" r="7"></circle>
                    </g>
                    <g transform="translate(0.000000, 246.000000)">
                        <line x1="13.5" y1="6.5" x2="106.5" y2="6.5" id="Line" stroke-linecap="square"></line>
                        <circle id="Oval" fill="#D8D8D8" cx="114" cy="7" r="7"></circle>
                        <circle id="Oval" cx="7" cy="7" r="7"></circle>
                    </g>
                </g>
            </g>
            <g id="tracegroup" transform="translate(240.076756, 61.000000) rotate(90.000000) translate(-240.076756, -61.000000) translate(179.576756, -69.000000)">
                <g id="trace">
                    <g>
                        <line x1="13.5" y1="6.5" x2="64.5" y2="6.5" id="Line" stroke-linecap="square"></line>
                        <circle id="Oval" cx="7" cy="7" r="7"></circle>
                    </g>
                    <g transform="translate(0.000000, 41.000000)">
                        <line x1="13.5" y1="6.5" x2="64.5" y2="6.5" id="Line" stroke-linecap="square"></line>
                        <circle id="Oval" cx="7" cy="7" r="7"></circle>
                    </g>
                    <g transform="translate(0.000000, 82.000000)">
                        <line x1="13.5" y1="6.5" x2="106.5" y2="6.5" id="Line" stroke-linecap="square"></line>
                        <circle id="Oval" fill="#D8D8D8" cx="114" cy="7" r="7"></circle>
                        <circle id="Oval" cx="7" cy="7" r="7"></circle>
                    </g>
                    <g transform="translate(0.000000, 123.000000)">
                        <line x1="13.5" y1="6.5" x2="106.5" y2="6.5" id="Line" stroke-linecap="square"></line>
                        <circle id="Oval" fill="#D8D8D8" cx="114" cy="7" r="7"></circle>
                        <circle id="Oval" cx="7" cy="7" r="7"></circle>
                    </g>
                    <g transform="translate(0.000000, 164.000000)">
                        <line x1="13.5" y1="6.5" x2="106.5" y2="6.5" id="Line" stroke-linecap="square"></line>
                        <circle id="Oval" fill="#D8D8D8" cx="114" cy="7" r="7"></circle>
                        <circle id="Oval" cx="7" cy="7" r="7"></circle>
                    </g>
                    <g transform="translate(0.000000, 205.000000)">
                        <line x1="13.5" y1="6.5" x2="64.5" y2="6.5" id="Line" stroke-linecap="square"></line>
                        <circle id="Oval" cx="7" cy="7" r="7"></circle>
                    </g>
                    <g transform="translate(0.000000, 246.000000)">
                        <line x1="13.5" y1="6.5" x2="106.5" y2="6.5" id="Line" stroke-linecap="square"></line>
                        <circle id="Oval" fill="#D8D8D8" cx="114" cy="7" r="7"></circle>
                        <circle id="Oval" cx="7" cy="7" r="7"></circle>
                    </g>
                </g>
            </g>
            <g id="tracegroup" transform="translate(240.500000, 456.000000) rotate(-90.000000) translate(-240.500000, -456.000000) translate(154.000000, 326.000000)">
                <g transform="translate(-0.000000, 0.000000)" id="trace">
                    <g transform="translate(51.000000, -0.000000)">
                        <line x1="13.5" y1="6.5" x2="64.5" y2="6.5" id="Line" stroke-linecap="square"></line>
                        <circle id="Oval" cx="7" cy="7" r="7"></circle>
                    </g>
                    <g transform="translate(51.000000, 41.000000)">
                        <line x1="13.5" y1="6.5" x2="64.5" y2="6.5" id="Line" stroke-linecap="square"></line>
                        <circle id="Oval" cx="7" cy="7" r="7"></circle>
                    </g>
                    <g transform="translate(51.000000, 82.000000)">
                        <line x1="13.5" y1="6.5" x2="106.5" y2="6.5" id="Line" stroke-linecap="square"></line>
                        <circle id="Oval" fill="#D8D8D8" cx="114" cy="7" r="7"></circle>
                        <circle id="Oval" cx="7" cy="7" r="7"></circle>
                    </g>
                    <g transform="translate(0.000000, 122.000000)">
                        <line x1="14.3304891" y1="7.41086136" x2="157.5" y2="7.5" id="Line" stroke-width="4" stroke-linecap="square"></line>
                        <circle id="Oval" fill="#D8D8D8" cx="165" cy="8" r="7"></circle>
                        <circle id="Oval" fill="#D8D8D8" cx="7.83048914" cy="7.91086136" r="7"></circle>
                    </g>
                    <g transform="translate(51.000000, 164.000000)">
                        <line x1="13.5" y1="6.5" x2="106.5" y2="6.5" id="Line" stroke-linecap="square"></line>
                        <circle id="Oval" fill="#D8D8D8" cx="114" cy="7" r="7"></circle>
                        <circle id="Oval" cx="7" cy="7" r="7"></circle>
                    </g>
                    <g transform="translate(51.000000, 205.000000)">
                        <line x1="13.5" y1="6.5" x2="64.5" y2="6.5" id="Line" stroke-linecap="square"></line>
                        <circle id="Oval" cx="7" cy="7" r="7"></circle>
                    </g>
                    <g transform="translate(51.000000, 246.000000)">
                        <line x1="13.5" y1="6.5" x2="106.5" y2="6.5" id="Line" stroke-linecap="square"></line>
                        <circle id="Oval" fill="#D8D8D8" cx="114" cy="7" r="7"></circle>
                        <circle id="Oval" cx="7" cy="7" r="7"></circle>
                    </g>
                </g>
            </g>
            <g id="tracegroup" transform="translate(370.717946, 113.976709)">
                <g transform="translate(61.000000, 130.000000) rotate(180.000000) translate(-61.000000, -130.000000) translate(0.000000, -0.000000)" id="trace">
                    <g transform="translate(1.000000, -0.000000)">
                        <line x1="13.5" y1="6.5" x2="64.5" y2="6.5" id="Line" stroke-linecap="square"></line>
                        <circle id="Oval" cx="7" cy="7" r="7"></circle>
                    </g>
                    <g transform="translate(1.000000, 41.000000)">
                        <line x1="13.5" y1="6.5" x2="64.5" y2="6.5" id="Line" stroke-linecap="square"></line>
                        <circle id="Oval" cx="7" cy="7" r="7"></circle>
                    </g>
                    <g transform="translate(1.000000, 82.000000)">
                        <line x1="13.5" y1="6.5" x2="106.5" y2="6.5" id="Line" stroke-linecap="square"></line>
                        <circle id="Oval" fill="#D8D8D8" cx="114" cy="7" r="7"></circle>
                        <circle id="Oval" cx="7" cy="7" r="7"></circle>
                    </g>
                    <g transform="translate(0.000000, 123.000000)">
                        <line x1="13.5" y1="6.5" x2="107.5" y2="6.5" id="Line" stroke-linecap="square"></line>
                        <circle id="Oval" fill="#D8D8D8" cx="115" cy="7" r="7"></circle>
                        <circle id="Oval" cx="7" cy="7" r="7"></circle>
                    </g>
                    <g transform="translate(1.000000, 164.000000)">
                        <line x1="13.5" y1="6.5" x2="106.5" y2="6.5" id="Line" stroke-linecap="square"></line>
                        <circle id="Oval" fill="#D8D8D8" cx="114" cy="7" r="7"></circle>
                        <circle id="Oval" cx="7" cy="7" r="7"></circle>
                    </g>
                    <g transform="translate(1.000000, 205.000000)">
                        <line x1="13.5" y1="6.5" x2="64.5" y2="6.5" id="Line" stroke-linecap="square"></line>
                        <circle id="Oval" cx="7" cy="7" r="7"></circle>
                    </g>
                    <g transform="translate(1.000000, 246.000000)">
                        <line x1="13.5" y1="6.5" x2="106.5" y2="6.5" id="Line" stroke-linecap="square"></line>
                        <circle id="Oval" fill="#D8D8D8" cx="114" cy="7" r="7"></circle>
                        <circle id="Oval" cx="7" cy="7" r="7"></circle>
                    </g>
                </g>
            </g>
        </g>
        <text id="https://yourdomain.c" font-family="ArialUnicodeMS, Arial Unicode MS" font-size="30" font-weight="normal" fill="#FFFFFF">
            <tspan x="1979.09668" y="869">https://yourdomain.com</tspan>
        </text>
        <text id="A-Raspberry-Pi-on-yo" font-family="ArialUnicodeMS, Arial Unicode MS" font-size="30" font-weight="normal" fill="#FFFFFF">
            <tspan x="401.07959" y="344">A Raspberry Pi on your desk</tspan>
        </text>
        <polyline id="Path-7" stroke="#029CDB" stroke-width="16" stroke-linecap="round" stroke-linejoin="round" points="880.836288 632.451355 1008.79059 632.451355 1074 500.5 1156.1218 500.5"></polyline>
        <polyline id="Path-8" stroke="#029CDB" stroke-width="16" stroke-linecap="round" stroke-linejoin="round" points="1650.741 500.5 1745.9782 500.5 1766.93897 538.608436 1877.38001 538.608436"></polyline>
        <text id="Get-a-public-IP-for" font-family="ArialUnicodeMS, Arial Unicode MS" font-size="48" font-weight="normal" fill="#029CDB">
            <tspan x="725.667969" y="156">Get a public IP for your RPi, Kubernetes cluster or for your laptop </tspan>
        </text>
        <text id="docs.inlets.dev" font-family="ArialUnicodeMS, Arial Unicode MS" font-size="48" font-weight="normal" fill="#029CDB">
            <tspan x="1259.24609" y="952">docs.inlets.dev</tspan>
        </text>
        <text id="A-VPS-in-the-cloud" font-family="ArialUnicodeMS, Arial Unicode MS" font-size="30" font-weight="normal" fill="#FFFFFF">
            <tspan x="2005.42432" y="277">A VPS in the cloud</tspan>
        </text>
        <g id="inlets-logo" transform="translate(859.000000, 194.000000)">
            <path d="M0,886 C0,590.666998 0,295.333002 0,0 C387.333665,0 774.667329,0 1162,0 C1162,295.333002 1162,590.666998 1162,886 C774.667329,886 387.333665,886 0,886 Z M752.115183,244.132694 C719.69113,141.956806 617.147134,78.7086653 509.858978,98.4191432 C409.398874,116.874721 333.880883,205.488344 335.934963,311.548256 C337.954262,415.799401 415.763838,503.616531 520.050871,517.716752 C618.583102,531.041361 698.943633,475.191361 732.263053,414.098028 C723.183165,414.098028 714.103278,414.098028 705.096928,414.098028 C649.185611,494.073525 549.40225,515.395883 469.841688,479.11516 C387.820602,441.713777 343.877008,352.271841 364.301537,263.98835 C383.708467,180.107947 461.657168,114.182951 557.764651,118.524387 C646.024495,122.511826 707.700551,184.971429 727.066738,244.130705 C695.874935,244.130705 664.718907,244.130705 633.611572,244.130705 C594.572131,193.043756 522.033401,187.940629 476.580302,230.177652 C432.808626,270.853507 431.012921,339.639316 474.001522,382.368554 C495.539051,403.777422 521.884339,414.190505 552.20363,413.138457 C585.8331,411.971062 612.856124,397.257313 633.707966,370.923311 C685.601554,370.923311 737.491168,370.923311 789.341031,370.923311 C796.73552,385.369574 810.391623,388.2811 820.018072,385.66888 C831.135146,382.650956 839.159671,372.644572 839.469721,361.311694 C839.787721,349.671554 832.430995,339.18091 821.409321,335.620057 C815.9914,333.869959 810.541679,333.871948 805.152576,335.706568 C797.373507,338.354585 792.143404,343.788838 788.927632,351.112401 C693.804955,351.112401 598.925747,351.112401 504.139951,351.112401 C494.994476,341.892567 487.517506,326.391274 487.649675,316.90097 C561.699898,316.90097 635.751115,316.90097 709.784444,316.90097 C718.144856,330.791378 728.447055,336.058576 740.859978,332.809957 C752.10922,329.86661 760.195358,319.74289 760.459695,308.273783 C760.72602,296.648558 753.309669,286.137033 742.260171,282.689539 C729.104918,278.584764 716.077858,284.914947 710.232625,297.031392 C636.078058,297.031392 561.923492,297.031392 487.5344,297.031392 C489.618293,284.08564 495.274714,273.166421 504.027657,264.006249 C599.513053,264.006249 694.676473,264.006249 789.779275,264.006249 C796.215789,277.72463 809.238874,281.902989 819.858079,279.502571 C831.074527,276.966917 839.621765,266.68012 840.043114,255.125496 C840.480364,243.146275 832.830482,232.428914 821.336778,229.084835 C807.361681,225.020829 795.01534,232.433886 789.580525,244.232131 C777.857264,244.232131 766.052516,244.23412 754.248762,244.228154 C753.583944,244.229148 752.918132,244.17048 752.115183,244.132694 Z M619.871001,645.050297 C606.775372,658.98744 587.71228,658.142222 576.8347,652.877013 C566.307913,647.780847 558.75045,636.182471 559.609049,626.173104 C583.54052,626.173104 607.498822,626.173104 631.767174,626.173104 C631.767174,624.066026 631.824811,622.236378 631.759224,620.408719 C630.430581,583.223116 594.3386,569.64693 568.78533,583.702404 C555.216678,591.164185 549.018663,603.477516 547.530027,618.594981 C545.684634,637.35981 555.527721,655.378858 572.305191,662.634803 C585.924525,668.523485 599.75354,668.456862 613.412624,662.551276 C618.509564,660.346749 622.864174,657.029518 626.405896,652.531965 C624.220641,650.028132 622.129793,647.635669 619.871001,645.050297 Z M488.052144,665.958995 C488.158475,665.382258 488.254868,665.102839 488.254868,664.822426 C488.263812,647.382103 488.435731,629.939792 488.201206,612.503447 C488.064069,602.282279 485.026177,593.01372 476.837683,586.173423 C468.750551,579.418641 459.128076,577.794829 449.016677,578.501829 C437.586573,579.300311 427.850811,583.613905 420.937297,593.193702 C420.750472,593.452239 420.444398,593.62526 419.804423,594.167194 C419.804423,588.871159 419.804423,584.064356 419.804423,579.162093 C416.012276,579.162093 412.469559,579.162093 408.850324,579.162093 C408.850324,608.177921 408.850324,637.061497 408.850324,665.923198 C412.741847,665.923198 416.382944,665.923198 420.294341,665.923198 C420.294341,664.721 420.294341,663.671935 420.294341,662.625854 C420.294341,648.382443 420.22776,634.141022 420.311235,619.898605 C420.41856,601.708525 430.724734,590.352776 448.150128,589.050146 C464.899772,587.795247 475.749527,596.878851 476.323914,613.640016 C476.881408,629.898028 476.531608,646.185872 476.579308,662.461782 C476.582289,663.586419 476.579308,664.713045 476.579308,665.959989 C480.607968,665.958995 484.255028,665.958995 488.052144,665.958995 Z M770.441907,586.47969 C769.206677,585.770701 768.245721,585.143252 767.224147,584.642087 C756.334642,579.303294 744.8151,577.565129 732.814584,578.74545 C727.079656,579.308266 721.565342,580.713316 716.641314,583.831672 C708.356426,589.080972 704.470866,596.554686 705.564984,606.42484 C706.664071,616.347696 713.06481,621.608928 721.923091,624.222143 C728.024712,626.020965 734.375764,626.948716 740.548934,628.52977 C745.758168,629.86422 751.196958,630.920245 755.952049,633.275916 C763.072262,636.800971 763.705281,646.453358 757.49236,651.492845 C755.457161,653.143505 752.876395,654.435197 750.339353,655.093472 C741.245553,657.453121 732.056353,657.128955 723.158322,654.276097 C717.717544,652.531965 712.582842,649.836218 707.153989,647.500434 C705.695165,650.061941 704.027654,652.990372 702.229961,656.150492 C703.736485,657.185635 705.085997,658.283423 706.583577,659.113726 C718.387331,665.658694 731.088441,667.711082 744.408657,666.51485 C751.53682,665.873479 758.330091,664.171111 764.236937,659.890332 C771.639375,654.527674 774.289704,647.120583 773.110124,638.270656 C771.926569,629.38692 766.030654,624.530399 758.057803,622.048441 C752.450076,620.302321 746.618755,619.281099 740.890784,617.923779 C736.101906,616.789198 731.226572,615.915144 726.556944,614.412645 C722.321585,613.049358 718.675519,610.579334 717.549601,605.785458 C716.060964,599.448313 719.225062,593.668018 725.743064,590.902665 C731.50681,588.455511 737.59253,588.315304 743.714026,588.69416 C751.470239,589.173449 758.635172,591.530115 765.277392,595.934196 C767.008503,592.762144 768.619371,589.813825 770.441907,586.47969 Z M653.538233,560.185463 C653.538233,566.496754 653.538233,572.642978 653.538233,579.110386 C648.190868,579.110386 643.124734,579.110386 638.145057,579.110386 C638.145057,582.586716 638.145057,585.728938 638.145057,589.104837 C643.342365,589.104837 648.334962,589.104837 653.564071,589.104837 C653.564071,590.392551 653.564071,591.437638 653.564071,592.48173 C653.564071,609.232952 653.516371,625.983179 653.581958,642.732411 C653.625683,653.927072 658.906467,661.963601 668.178148,665.169462 C674.186356,667.247703 680.315802,667.348135 686.478041,665.975899 C690.465957,665.085935 694.155748,663.553605 697.228421,660.652022 C695.83916,657.813085 694.533373,655.148163 693.286218,652.601571 C692.902631,652.601571 692.796299,652.568757 692.735681,652.607538 C692.246756,652.917782 691.780688,653.267802 691.281825,653.559153 C685.130517,657.14586 678.624441,658.119352 672.191901,654.850845 C666.106181,651.757348 665.261494,645.835852 665.285344,639.649852 C665.34795,623.868146 665.306212,608.086439 665.306212,592.304732 C665.306212,591.275555 665.306212,590.246378 665.306212,588.952698 C674.239025,588.952698 682.805144,588.952698 691.455732,588.952698 C691.455732,585.525091 691.455732,582.368949 691.455732,578.974156 C682.72465,578.974156 674.148594,578.974156 665.283356,578.974156 C665.283356,572.596243 665.283356,566.453001 665.283356,560.185463 C661.267615,560.185463 657.548012,560.185463 653.538233,560.185463 Z M516.092768,543.544617 C516.092768,584.424319 516.092768,625.116085 516.092768,665.909276 C519.980315,665.909276 523.701906,665.909276 527.522872,665.909276 C527.522872,625.052445 527.522872,584.362668 527.522872,543.544617 C523.687,543.544617 520.035965,543.544617 516.092768,543.544617 Z M379.829864,665.946068 C379.829864,636.805943 379.829864,608.000923 379.829864,579.24562 C375.905548,579.24562 372.187932,579.24562 368.555778,579.24562 C368.555778,608.257471 368.555778,637.063486 368.555778,665.946068 C372.3996,665.946068 376.039704,665.946068 379.829864,665.946068 Z M374.416911,560.070116 C379.348889,560.009459 383.008868,556.286523 382.928374,551.414092 C382.854836,546.916539 379.112377,543.379551 374.411942,543.365591 C369.445183,543.351709 365.723592,547.037852 365.812036,551.885425 C365.897498,556.650464 369.556483,560.128784 374.416911,560.070116 Z" id="Shape"></path>
            <path d="M752.0833,243.346214 C752.885984,243.384011 753.551575,243.443691 754.216173,243.443691 C766.016018,243.449659 777.816857,243.44767 789.536235,243.44767 C794.96925,231.645937 807.311503,224.230688 821.281972,228.295896 C832.77187,231.639969 840.420212,242.361493 839.982114,254.344255 C839.560903,265.902295 831.01749,276.192133 819.803762,278.728536 C809.188074,281.129664 796.169302,276.95007 789.734919,263.227633 C694.663612,263.227633 599.531706,263.227633 504.077931,263.227633 C495.327886,272.390513 489.673338,283.31296 487.590136,296.26254 C561.953599,296.26254 636.084602,296.26254 710.214612,296.26055 C716.05791,284.142513 729.079662,277.810458 742.231552,281.916446 C753.277391,285.364959 760.691286,295.878598 760.42505,307.508253 C760.1608,318.980752 752.078333,329.107464 740.831823,332.051681 C728.424004,335.301261 718.125217,330.032505 709.766579,316.137991 C635.757767,316.137991 561.73008,316.137991 487.705373,316.137991 C487.573248,325.6311 495.047742,341.136976 504.190188,350.359536 C598.944594,350.359536 693.792382,350.359536 788.883558,350.359536 C792.098266,343.033808 797.326637,337.597948 805.10313,334.949148 C810.491441,333.113986 815.938364,333.111997 821.354491,334.862612 C832.372515,338.424517 839.726805,348.918262 839.40891,360.561843 C839.098963,371.897077 831.076101,381.906419 819.963703,384.926231 C810.339448,387.539223 796.688861,384.626836 789.296821,370.176302 C737.463135,370.176302 685.590705,370.176302 633.715295,370.176302 C612.871352,396.518089 585.856283,411.236188 552.23795,412.403928 C521.927706,413.457281 495.592136,403.040126 474.06174,381.624928 C431.086381,338.883059 432.882485,270.076916 476.639665,229.389036 C522.076719,187.139527 594.591427,192.244162 633.618933,243.346214 C664.715966,243.346214 695.861677,243.346214 727.04315,243.346214 C707.683377,184.169449 646.027745,121.691382 557.797129,117.702764 C461.721474,113.360045 383.798586,179.303534 364.398083,263.209729 C343.979324,351.519319 387.909359,440.986701 469.903283,478.400135 C549.438492,514.691584 649.188808,493.362922 705.080616,413.363782 C714.08299,413.363782 723.160864,413.363782 732.238738,413.363782 C698.929358,474.475176 618.59544,530.341686 520.095839,517.013138 C415.843342,502.908749 338.059533,415.065659 336.040903,310.783694 C333.987503,204.693424 409.480485,116.053605 509.907321,97.5915763 C617.159947,77.8732823 719.669985,141.140121 752.0833,243.346214 Z M830.725424,359.581101 C830.663832,349.978578 822.912174,342.286812 813.311761,342.302702 C803.601079,342.318642 795.865315,350.187458 795.969625,359.94316 C796.07294,369.486997 803.968644,377.192689 813.52932,377.080291 C823.125759,376.965904 830.787016,369.170693 830.725424,359.581101 Z M831.306812,253.303833 C831.356246,243.74806 823.606575,235.925992 814.038945,235.879031 C804.460387,235.832493 796.659058,243.517297 796.558723,253.097937 C796.457394,262.665646 804.155407,270.558335 813.690254,270.664764 C823.426766,270.773183 831.25591,263.057545 831.306812,253.303833 Z M734.365651,289.380432 C724.796034,289.377449 717.002652,297.139837 716.980754,306.69561 C716.959935,316.309074 724.633113,324.092349 734.20571,324.16496 C743.929307,324.23956 751.720702,316.479162 751.73363,306.71053 C751.745537,297.177634 743.936261,289.385407 734.365651,289.380432 Z" id="Shape" fill="#029CDB"></path>
            <path d="M620.006633,644.971854 C622.278301,647.564685 624.382994,649.96405 626.582672,652.47411 C623.019193,656.984638 618.637833,660.311439 613.509582,662.522326 C599.766591,668.444949 585.852624,668.511765 572.149626,662.606094 C555.269093,655.329215 545.36554,637.258183 547.222269,618.439219 C548.72005,603.27814 554.955139,590.929286 568.608144,583.445978 C594.318387,569.349954 630.63208,582.965307 631.968885,620.258189 C632.033876,622.091121 631.976884,623.926047 631.976884,626.039204 C607.559452,626.039204 583.453974,626.039204 559.375493,626.039204 C558.511619,636.077448 566.115508,647.709285 576.70696,652.820153 C587.650361,658.10155 606.830558,658.949206 620.006633,644.971854 Z M559.079536,617.072997 C579.714521,617.072997 600.126538,617.072997 620.540555,617.072997 C620.278593,601.617732 607.010532,588.694465 591.141851,588.263657 C573.638409,587.787972 560.514326,599.521528 559.079536,617.072997 Z" id="Shape" fill="#029CDB"></path>
            <path d="M487.731474,666 C483.957943,666 480.332587,666 476.325926,666 C476.325926,664.74751 476.32889,663.615874 476.325926,662.486235 C476.27851,646.138938 476.626228,629.777659 476.072052,613.447341 C475.502071,596.612632 464.716884,587.488629 448.065929,588.748111 C430.745222,590.057533 420.50038,601.462786 420.392706,619.733764 C420.309728,634.038523 420.375913,648.34428 420.375913,662.651036 C420.375913,663.702769 420.375913,664.7555 420.375913,665.963045 C416.487793,665.963045 412.868364,665.963045 409,665.963045 C409,636.972986 409,607.960954 409,578.816082 C412.598685,578.816082 416.11933,578.816082 419.88891,578.816082 C419.88891,583.740147 419.88891,588.568328 419.88891,593.887916 C420.525076,593.343572 420.82933,593.169782 421.015043,592.910095 C427.887414,583.286694 437.565238,578.953916 448.927322,578.152882 C458.978548,577.442737 468.543758,579.073772 476.582763,585.858594 C484.72154,592.729313 487.742341,602.038093 487.878662,612.305717 C488.110803,629.819608 487.939908,647.339491 487.932005,664.857377 C487.932993,665.140037 487.837173,665.420698 487.731474,666 Z" id="Path" fill="#059DDC"></path>
            <path d="M770.070368,586.044489 C768.251668,589.362826 766.644191,592.29531 764.914739,595.453369 C758.285507,591.070473 751.135654,588.726663 743.396756,588.249788 C737.288144,587.872839 731.215231,588.01234 725.463616,590.447172 C718.958341,593.198602 715.801894,598.949792 717.287397,605.255029 C718.411937,610.023778 722.05033,612.482355 726.275784,613.838777 C730.935584,615.3347 735.799665,616.204354 740.579456,617.332232 C746.296364,618.682718 752.115412,619.699787 757.710345,621.436127 C765.666416,623.905587 771.549922,628.738645 772.730986,637.57666 C773.909076,646.382027 771.264324,653.752812 763.876474,659.087479 C757.982059,663.346704 751.203087,665.04149 744.089925,665.678642 C730.797743,666.86885 718.122373,664.826797 706.344453,658.314783 C704.850025,657.487672 703.503353,656.3964 702,655.366469 C703.794901,652.222261 705.457911,649.308575 706.913665,646.759965 C712.332083,649.084978 717.455979,651.767152 722.884314,653.501512 C731.762626,656.340006 740.932486,656.66254 750.008139,654.314772 C752.540833,653.659811 755.115177,652.374623 757.146092,650.732274 C763.345937,645.718162 762.714251,636.114376 755.609022,632.60707 C750.86394,630.263259 745.436596,629.211562 740.238326,627.884821 C734.078147,626.311727 727.739471,625.388648 721.651683,623.598883 C712.812045,620.997837 706.425769,615.763096 705.328004,605.891192 C704.236188,596.070734 708.114562,588.635641 716.381022,583.411783 C721.294686,580.308139 726.798387,578.911152 732.520253,578.351171 C744.495513,577.175803 755.990811,578.906205 766.857397,584.218117 C767.878805,584.714779 768.837738,585.33907 770.070368,586.044489 Z" id="Path" fill="#039CDB"></path>
            <path d="M653.371457,560 C657.375578,560 661.089934,560 665.100008,560 C665.100008,566.284921 665.100008,572.444204 665.100008,578.840805 C673.952737,578.840805 682.516693,578.840805 691.235455,578.840805 C691.235455,582.245012 691.235455,585.409909 691.235455,588.847022 C682.597073,588.847022 674.043041,588.847022 665.122832,588.847022 C665.122832,590.14429 665.122832,591.176321 665.122832,592.208353 C665.122832,608.033831 665.165503,623.859309 665.101993,639.684787 C665.079169,645.887944 665.921672,651.825863 671.998806,654.92794 C678.422269,658.205512 684.919166,657.230317 691.061795,653.632666 C691.559953,653.340506 692.025364,652.989516 692.513599,652.678411 C692.574132,652.639523 692.680313,652.672428 693.063359,652.672428 C694.308755,655.226083 695.611706,657.897399 697,660.745207 C693.93067,663.654837 690.246085,665.191417 686.264788,666.08385 C680.111244,667.460889 673.990447,667.359182 667.990716,665.275176 C658.732117,662.059427 653.457792,654.000608 653.415121,642.775896 C653.350618,625.980208 653.397258,609.183524 653.397258,592.385842 C653.397258,591.337857 653.397258,590.289871 653.397258,588.999583 C648.175528,588.999583 643.190968,588.999583 638,588.999583 C638,585.614321 638,582.463384 638,578.977412 C642.972652,578.977412 648.031637,578.977412 653.371457,578.977412 C653.371457,572.492067 653.371457,566.327798 653.371457,560 Z" id="Path" fill="#019CDB"></path>
            <path d="M516,543 C519.795775,543 523.309424,543 527,543 C527,583.696409 527,624.264926 527,665 C523.322813,665 519.741262,665 516,665 C516,624.328376 516,583.757876 516,543 Z" id="Path" fill="#009CDB"></path>
            <path d="M380,666 C376.301983,666 372.749405,666 369,666 C369,637.01663 369,608.111089 369,579 C372.543852,579 376.171089,579 380,579 C380,607.853655 380,636.759195 380,666 Z" id="Path" fill="#019CDB"></path>
            <path d="M374.546501,559.999256 C369.720898,560.058963 366.087387,556.519062 366.001533,551.670672 C365.913705,546.737277 369.609387,542.985872 374.541567,543 C379.20829,543.014208 382.925681,546.612803 382.998707,551.190994 C383.07864,556.149689 379.444142,559.938537 374.546501,559.999256 Z" id="Path" fill="#039CDB"></path>
            <path d="M830.999629,360.388291 C831.061649,370.038874 823.347093,377.883664 813.68289,377.998778 C804.055699,378.11189 796.105065,370.35719 796.00103,360.752653 C795.896996,350.933903 803.685577,343.01504 813.463817,343 C823.132021,342.984009 830.937608,350.724695 830.999629,360.388291 Z" id="Path"></path>
            <path d="M832,253.531569 C831.947728,263.34505 824.061824,271.106967 814.256727,270.998885 C804.652755,270.891803 796.898933,262.95075 797.000996,253.324411 C797.102059,243.685063 804.959946,235.954169 814.607945,236 C824.243938,236.048241 832.049792,243.91724 832,253.531569 Z" id="Path"></path>
            <path d="M734.509519,290 C744.148185,290.005005 752.011992,297.845157 752,307.437683 C751.98698,317.266396 744.141182,325.074522 734.347441,324.999463 C724.706774,324.926406 716.979033,317.095261 717,307.422672 C717.024054,297.807127 724.872854,289.996999 734.509519,290 Z" id="Path"></path>
            <path d="M559,617 C560.425044,599.34089 573.450894,587.536378 590.821341,588.013976 C606.571247,588.447427 619.740991,601.44995 620,617 C599.738779,617 579.479543,617 559,617 Z" id="Path"></path>
        </g>
    </g>
</svg>